<svg width="101" height="32" viewBox="0 0 101 32" fill="none" xmlns="http://www.w3.org/2000/svg">
<g clip-path="url(#clip0_424_244)">
<path d="M97.9139 24.9963C97.9129 25.4567 97.794 25.9097 97.5679 26.3141C97.3418 26.7186 97.0156 27.0618 96.6189 27.3126C96.2221 27.5634 95.7674 27.7139 95.2958 27.7505C94.8243 27.7872 94.3508 27.7088 93.9182 27.5224C91.6195 26.5283 89.6654 24.908 88.2916 22.8571C86.9179 20.8061 86.1832 18.4121 86.1761 15.9637C86.1691 13.5154 86.89 11.1174 88.2519 9.05893C89.6139 7.00051 91.5586 5.36964 93.8516 4.36305C94.5373 4.06874 95.3148 4.05008 96.0147 4.31113C96.7145 4.57217 97.2801 5.09179 97.5882 5.75681C97.8963 6.42184 97.9219 7.17842 97.6596 7.86179C97.3973 8.54516 96.8682 9.09997 96.1876 9.40541C94.8938 9.97268 93.7965 10.8923 93.0279 12.0533C92.2594 13.2144 91.8525 14.5671 91.8565 15.9482C91.8605 17.3294 92.2751 18.6799 93.0503 19.8367C93.8256 20.9935 94.9282 21.9071 96.2252 22.4673C96.7279 22.6847 97.1549 23.0393 97.4547 23.4882C97.7544 23.937 97.9139 24.4609 97.9139 24.9963Z" fill="#162275"/>
<path d="M89.0144 14.4069C89.7298 20.3275 95.966 22.3503 95.966 22.3503C94.7158 21.7538 93.6655 20.8238 92.9375 19.6686C92.2094 18.5134 91.8336 17.1806 91.8538 15.8255C91.874 14.4705 92.2893 13.1489 93.0515 12.0147C93.8136 10.8806 94.8912 9.98055 96.1586 9.41953C96.8089 9.13219 97.3266 8.62027 97.6115 7.98281C97.8965 7.34536 97.9283 6.62769 97.701 5.96869C97.5706 5.60701 97.3644 5.27565 97.0955 4.99564C96.8266 4.71563 96.5009 4.49308 96.1389 4.34211C95.777 4.19114 95.3867 4.11504 94.993 4.11865C94.5992 4.12226 94.2105 4.2055 93.8515 4.36308C93.6473 4.4533 93.4518 4.55339 93.2534 4.65206C91.6531 5.68112 88.3946 9.27857 89.0144 14.4069Z" fill="#2874F5"/>
<path d="M35.1211 5.36395L28.4201 26.5159H23.1499L18.9833 16.3071L14.8935 26.5159H9.62045L2.81372 5.371H9.2497L12.7747 17.5617L17.9507 5.47673H20.0232L25.2919 17.5716L28.7474 5.371L35.1211 5.36395Z" fill="#162275"/>
<path d="M40.5273 5.36395H46.5911V26.5159H40.5273V5.36395Z" fill="#162275"/>
<path d="M73.2967 5.36395V26.5159H68.3466L59.7137 15.037V26.5159H53.9135V5.371H59.1503L67.4936 16.4693V5.36395H73.2967Z" fill="#162275"/>
<path d="M86.6103 17.1713V14.2801V5.36395H80.6233V26.5159H86.6103V17.1713Z" fill="#162275"/>
</g>
<defs>
<clipPath id="clip0_424_244">
<rect width="95.5385" height="24" fill="white" transform="translate(2.73077 4)"/>
</clipPath>
</defs>
</svg>
